HIERARCHY
ROOT Hips
{
	OFFSET 0.00000 0.00000 0.00000
	CHANNELS 6 Xposition Yposition Zposition Zrotation Yrotation Xrotation 
	JOINT LHipJoint
	{
		OFFSET 0 0 0
		CHANNELS 3 Zrotation Yrotation Xrotation
		JOINT LeftUpLeg
		{
			OFFSET 1.62964 -1.40469 0.78906
			CHANNELS 3 Zrotation Yrotation Xrotation
			JOINT LeftLeg
			{
				OFFSET 2.29640 -6.30932 0.00000
				CHANNELS 3 Zrotation Yrotation Xrotation
				JOINT LeftFoot
				{
					OFFSET 2.29451 -6.30412 0.00000
					CHANNELS 3 Zrotation Yrotation Xrotation
					JOINT LeftToeBase
					{
						OFFSET 0.03611 -0.09921 1.56387
						CHANNELS 3 Zrotation Yrotation Xrotation
						End Site
						{
							OFFSET 0.00000 -0.00000 0.80291
						}
					}
				}
			}
		}
	}
	JOINT RHipJoint
	{
		OFFSET 0 0 0
		CHANNELS 3 Zrotation Yrotation Xrotation
		JOINT RightUpLeg
		{
			OFFSET -1.73712 -1.40469 0.78906
			CHANNELS 3 Zrotation Yrotation Xrotation
			JOINT RightLeg
			{
				OFFSET -2.28137 -6.26801 0.00000
				CHANNELS 3 Zrotation Yrotation Xrotation
				JOINT RightFoot
				{
					OFFSET -2.28681 -6.28298 0.00000
					CHANNELS 3 Zrotation Yrotation Xrotation
					JOINT RightToeBase
					{
						OFFSET -0.15927 -0.43759 1.61103
						CHANNELS 3 Zrotation Yrotation Xrotation
						End Site
						{
							OFFSET -0.00000 -0.00000 0.84630
						}
					}
				}
			}
		}
	}
	JOINT LowerBack
	{
		OFFSET 0 0 0
		CHANNELS 3 Zrotation Yrotation Xrotation
		JOINT Spine
		{
			OFFSET -0.04227 2.04338 -0.00225
			CHANNELS 3 Zrotation Yrotation Xrotation
			JOINT Spine1
			{
				OFFSET -0.02148 2.04482 -0.04273
				CHANNELS 3 Zrotation Yrotation Xrotation
				JOINT Neck
				{
					OFFSET 0 0 0
					CHANNELS 3 Zrotation Yrotation Xrotation
					JOINT Neck1
					{
						OFFSET 0.09180 1.44629 0.19359
						CHANNELS 3 Zrotation Yrotation Xrotation
						JOINT Head
						{
							OFFSET 0.00887 1.40645 0.14750
							CHANNELS 3 Zrotation Yrotation Xrotation
							End Site
							{
								OFFSET -0.00669 1.50671 0.03707
							}
						}
					}
				}
				JOINT LeftShoulder
				{
					OFFSET 0 0 0
					CHANNELS 3 Zrotation Yrotation Xrotation
					JOINT LeftArm
					{
						OFFSET 2.17674 1.86763 -0.06520
						CHANNELS 3 Zrotation Yrotation Xrotation
						JOINT LeftForeArm
						{
							OFFSET 4.65776 -0.00000 0.00000
							CHANNELS 3 Zrotation Yrotation Xrotation
							JOINT LeftHand
							{
								OFFSET 3.55539 -0.00000 0.00000
								CHANNELS 3 Zrotation Yrotation Xrotation
								JOINT LeftFingerBase
								{
									OFFSET 0 0 0
									CHANNELS 3 Zrotation Yrotation Xrotation
									JOINT LeftHandIndex1
									{
										OFFSET 0.70726 -0.00000 0.00000
										CHANNELS 3 Zrotation Yrotation Xrotation
										End Site
										{
											OFFSET 0.57022 -0.00000 0.00000
										}
									}
								}
								JOINT LThumb
								{
									OFFSET 0 0 0
									CHANNELS 3 Zrotation Yrotation Xrotation
									End Site
									{
										OFFSET 0.57892 -0.00000 0.57892
									}
								}
							}
						}
					}
				}
				JOINT RightShoulder
				{
					OFFSET 0 0 0
					CHANNELS 3 Zrotation Yrotation Xrotation
					JOINT RightArm
					{
						OFFSET -2.80694 1.55459 -0.32496
						CHANNELS 3 Zrotation Yrotation Xrotation
						JOINT RightForeArm
						{
							OFFSET -4.71925 -0.00000 -0.00000
							CHANNELS 3 Zrotation Yrotation Xrotation
							JOINT RightHand
							{
								OFFSET -3.56990 -0.00000 0.00000
								CHANNELS 3 Zrotation Yrotation Xrotation
								JOINT RightFingerBase
								{
									OFFSET 0 0 0
									CHANNELS 3 Zrotation Yrotation Xrotation
									JOINT RightHandIndex1
									{
										OFFSET -0.50776 -0.00000 0.00000
										CHANNELS 3 Zrotation Yrotation Xrotation
										End Site
										{
											OFFSET -0.40937 -0.00000 0.00000
										}
									}
								}
								JOINT RThumb
								{
									OFFSET 0 0 0
									CHANNELS 3 Zrotation Yrotation Xrotation
									End Site
									{
										OFFSET -0.41562 -0.00000 0.41562
									}
								}
							}
						}
					}
				}
			}
		}
	}
}
MOTION
Frames: 13
Frame Time: .0083333
-1.0513 17.9598 20.8625 177.8430 -4.3106 -153.8510 0.0000 0.0000 0.0000 -21.9733 -14.6591 -20.8223 0.1305 2.3285 6.4145 -0.0050 -6.0007 -4.0618 3.0576 -10.7877 -31.5673 0.0000 0.0000 0.0000 18.6535 11.0424 -21.1085 -0.0959 -1.9968 5.4967 -0.8875 4.9694 -16.8271 -0.7000 5.3481 -14.9041 -7.7740 -0.6844 -28.3148 -0.3348 1.1977 -0.5342 4.2827 -0.1785 14.2646 -1.2016 -0.8522 -3.3461 2.5292 -3.8009 24.7573 0.6343 -2.4518 8.2735 0.0000 0.0000 0.0000 -86.5453 -1.4924 27.0518 9.3426 -15.7048 -1.2913 -0.0000 -0.0000 5.5691 21.5797 -10.4402 -4.0995 -7.1250 0.0000 -0.0000 -3.8639 18.7862 2.4193 0.0000 0.0000 0.0000 92.4910 -2.3504 -2.7397 -9.3264 15.6791 -1.2869 0.0000 0.0000 13.3133 -20.9654 -57.2412 17.8605 7.1250 -0.0000 -0.0000 86.8732 -79.5342 -76.1921
-1.0530 17.9615 20.8716 177.8830 -4.0426 -153.7780 0.0000 0.0000 0.0000 -21.9199 -14.6896 -20.9469 0.1314 2.3366 6.4367 0.0066 -5.7357 -4.2076 3.2093 -11.0264 -32.3689 0.0000 0.0000 0.0000 18.5749 11.3402 -21.2520 -0.0998 -2.0374 5.6091 -0.8799 4.9789 -16.7530 -0.6843 5.2889 -14.7343 -7.7579 -0.6654 -28.2787 -0.3501 1.2142 -0.5418 4.2630 -0.1688 14.2374 -1.3035 -1.0119 -3.5821 2.5644 -4.1491 25.3488 0.6220 -2.6466 8.5304 0.0000 0.0000 0.0000 -86.5622 -1.4896 26.8602 9.3433 -15.7058 -1.2915 -0.0000 -0.0000 5.5840 21.3604 -10.2261 -3.9718 -7.1250 0.0000 -0.0000 -4.0138 19.0318 2.4916 0.0000 0.0000 0.0000 92.5201 -2.4041 -2.6042 -9.4055 15.8043 -1.3084 0.0000 0.0000 12.9687 -20.6370 -57.3531 17.5944 7.1250 -0.0000 -0.0000 87.2618 -79.4017 -76.4428
-1.0567 17.9628 20.8806 177.9290 -3.8034 -153.7320 0.0000 0.0000 0.0000 -21.8881 -14.6739 -21.0172 0.1287 2.3123 6.3696 0.0138 -5.5463 -4.2888 3.2001 -11.0122 -32.3210 0.0000 0.0000 0.0000 18.5303 11.5235 -21.3863 -0.1030 -2.0695 5.6976 -0.8763 5.1036 -16.7111 -0.6644 5.2131 -14.5173 -7.7143 -0.6564 -28.2267 -0.3619 1.2089 -0.5428 4.2244 -0.1668 14.2141 -1.3304 -1.1483 -3.4645 2.5548 -4.3959 25.4739 0.6014 -2.7825 8.5584 0.0000 -0.0000 0.0000 -86.5144 -1.3553 26.8243 9.3822 -15.7674 -1.3020 -0.0000 -0.0000 5.5570 21.2042 -10.3575 -3.9900 -7.1250 0.0000 -0.0000 -4.1278 18.9041 2.5745 0.0000 -0.0000 0.0000 92.5327 -2.3519 -2.6182 -9.3901 15.7799 -1.3042 0.0000 0.0000 13.0627 -19.4216 -58.1587 16.6741 7.1250 -0.0000 -0.0000 90.6438 -78.8405 -79.2795
-1.0598 17.9627 20.8880 178.0040 -3.6605 -153.7060 0.0000 0.0000 0.0000 -21.8172 -14.6679 -21.0691 0.1270 2.2973 6.3281 0.0202 -5.4111 -4.3836 3.1354 -10.9111 -31.9806 0.0000 0.0000 0.0000 18.5593 11.6613 -21.4240 -0.1027 -2.0662 5.6886 -0.8713 5.1028 -16.6629 -0.6921 5.3185 -14.8192 -7.6417 -0.6558 -28.1096 -0.3547 1.1705 -0.5820 4.1772 -0.1750 14.1206 -1.2608 -1.1985 -3.2015 2.4916 -4.5022 25.4730 0.5625 -2.8482 8.5098 -0.0000 0.0000 0.0000 -86.4294 -1.1476 26.9963 9.4371 -15.8543 -1.3170 -0.0000 -0.0000 5.4080 21.0150 -10.3839 -3.9610 -7.1250 0.0000 -0.0000 -4.2625 18.8908 2.6602 -0.0000 0.0000 0.0000 92.5287 -2.3594 -2.7375 -9.3464 15.7108 -1.2923 0.0000 0.0000 13.4731 -17.3983 -59.5528 15.1169 7.1250 -0.0000 -0.0000 95.9636 -77.8496 -83.7375
-1.0612 17.9627 20.8932 178.0150 -3.5413 -153.7130 0.0000 0.0000 0.0000 -21.8223 -14.6689 -21.0661 0.1264 2.2922 6.3139 0.0247 -5.2859 -4.4368 3.1653 -10.9580 -32.1383 0.0000 0.0000 0.0000 18.5195 11.8081 -21.3037 -0.0965 -2.0035 5.5153 -0.8624 4.9700 -16.5819 -0.7496 5.5301 -15.4269 -7.6685 -0.6947 -27.9833 -0.3366 1.1153 -0.5929 4.1904 -0.1981 14.0541 -1.1589 -1.1741 -3.0369 2.3843 -4.4965 25.5418 0.5104 -2.8602 8.4989 -0.0000 0.0000 0.0000 -86.3694 -1.0267 27.1630 9.4822 -15.9256 -1.3293 -0.0000 -0.0000 5.2646 20.9638 -10.4225 -3.9649 -7.1250 0.0000 -0.0000 -4.2996 18.8539 2.6870 -0.0000 0.0000 0.0000 92.5133 -2.5778 -2.2730 -9.4552 15.8829 -1.3219 0.0000 0.0000 13.0458 -17.1340 -59.5381 14.8816 7.1250 -0.0000 -0.0000 95.7326 -77.7707 -83.4136
-1.0631 17.9649 20.8984 178.0080 -3.4002 -153.7680 0.0000 0.0000 0.0000 -21.8568 -14.6565 -20.9757 0.1233 2.2632 6.2337 0.0302 -5.1195 -4.4987 3.2257 -11.0517 -32.4546 0.0000 0.0000 0.0000 18.4892 11.7695 -21.1801 -0.0891 -1.9256 5.3000 -0.8482 5.0224 -16.4389 -0.7450 5.5136 -15.3794 -7.7075 -0.7306 -27.8419 -0.3387 1.0783 -0.5561 4.1964 -0.2138 14.0338 -1.0705 -1.1930 -2.9182 2.3308 -4.5614 25.6113 0.4721 -2.8999 8.4998 -0.0000 -0.0000 0.0000 -86.3250 -1.0619 26.9824 9.5072 -15.9650 -1.3362 -0.0000 -0.0000 5.2225 20.5410 -10.3334 -3.8452 -7.1250 0.0000 -0.0000 -4.5973 18.9810 2.8612 -0.0000 -0.0000 0.0000 92.5369 -2.7497 -1.5871 -9.5554 16.0412 -1.3495 0.0000 0.0000 11.8336 -20.1128 -57.3538 17.1370 7.1250 -0.0000 -0.0000 86.9431 -79.2178 -75.9262
-1.0669 17.9672 20.9037 178.0420 -3.2901 -153.8000 0.0000 0.0000 0.0000 -21.8461 -14.6521 -20.9095 0.1203 2.2364 6.1595 0.0344 -4.9979 -4.5512 3.2376 -11.0701 -32.5167 0.0000 0.0000 0.0000 18.5387 11.5855 -21.2030 -0.0862 -1.8939 5.2125 -0.8336 5.2910 -16.2839 -0.6964 5.3344 -14.8648 -7.6478 -0.7519 -27.7496 -0.3584 1.0351 -0.5154 4.1277 -0.2271 14.0451 -1.0244 -1.3221 -2.7874 2.3650 -4.8101 25.6866 0.4552 -3.0247 8.5075 0.0000 0.0000 0.0000 -86.2933 -1.1550 26.5357 9.4724 -15.9101 -1.3266 -0.0000 -0.0000 5.4253 20.1547 -10.3368 -3.7679 -7.1250 0.0000 -0.0000 -4.8712 19.0064 3.0301 0.0000 0.0000 0.0000 92.5833 -2.8649 -0.9509 -9.6390 16.1729 -1.3727 0.0000 0.0000 10.7944 -21.7576 -56.4166 18.3917 7.1250 -0.0000 -0.0000 82.7994 -79.9175 -72.5296
-1.0725 17.9662 20.9077 178.0660 -3.2301 -153.7590 0.0000 0.0000 0.0000 -21.8439 -14.6900 -20.9442 0.1200 2.2336 6.1517 0.0348 -4.9635 -4.5436 3.1128 -10.8755 -31.8612 0.0000 0.0000 0.0000 18.5992 11.2548 -21.3760 -0.0849 -1.8799 5.1740 -0.8136 5.6957 -16.0782 -0.6791 5.2693 -14.6783 -7.5554 -0.7679 -27.7283 -0.3770 0.9865 -0.5091 4.0393 -0.2423 14.0512 -1.1510 -1.4980 -2.7997 2.5070 -5.1568 25.9165 0.4903 -3.2032 8.6041 -0.0000 -0.0000 0.0000 -86.2766 -1.1927 26.2077 9.4090 -15.8098 -1.3093 -0.0000 -0.0000 5.6730 20.2115 -10.5255 -3.8475 -7.1250 0.0000 -0.0000 -4.8342 18.8028 3.0289 -0.0000 -0.0000 0.0000 92.5831 -2.9694 -0.9636 -9.6796 16.2368 -1.3840 0.0000 0.0000 11.1098 -20.2385 -57.8530 17.3366 7.1250 -0.0000 -0.0000 89.6243 -79.1772 -78.5966
-1.0792 17.9637 20.9127 178.1150 -3.2169 -153.6790 0.0000 0.0000 0.0000 -21.7958 -14.7970 -21.0376 0.1206 2.2392 6.1671 0.0366 -4.8579 -4.5391 3.1632 -10.9547 -32.1272 0.0000 0.0000 0.0000 18.6608 11.0297 -21.5877 -0.0852 -1.8831 5.1827 -0.7984 5.9401 -15.9270 -0.6836 5.2863 -14.7270 -7.4300 -0.7803 -27.6941 -0.3737 0.9229 -0.5374 3.9507 -0.2613 14.0132 -1.0669 -1.4223 -2.6382 2.4264 -5.0536 25.8906 0.4606 -3.1621 8.5591 0.0000 -0.0000 0.0000 -86.2460 -1.1851 26.0591 9.4005 -15.7965 -1.3070 -0.0000 -0.0000 5.6346 20.0519 -10.4637 -3.7925 -7.1250 0.0000 -0.0000 -4.9462 18.8802 3.0910 0.0000 -0.0000 0.0000 92.5533 -3.0570 -1.3208 -9.6648 16.2136 -1.3799 0.0000 0.0000 11.9500 -20.0086 -59.0316 17.3401 7.1250 -0.0000 -0.0000 95.3845 -78.8161 -84.1378
-1.0804 17.9636 20.9171 178.1010 -3.2098 -153.6790 0.0000 0.0000 0.0000 -21.8204 -14.7875 -21.0458 0.1201 2.2340 6.1527 0.0359 -4.8265 -4.5047 3.3144 -11.1873 -32.9143 0.0000 0.0000 0.0000 18.5963 11.2584 -21.5060 -0.0848 -1.8779 5.1685 -0.8079 5.6699 -16.0210 -0.7139 5.3999 -15.0526 -7.4628 -0.8346 -27.6093 -0.3616 0.8582 -0.5206 3.9583 -0.2908 13.9992 -1.0622 -1.4673 -2.6844 2.3917 -5.1741 26.1294 0.4322 -3.2345 8.6523 -0.0000 0.0000 0.0000 -86.2279 -1.2347 25.8956 9.3958 -15.7890 -1.3057 -0.0000 -0.0000 5.6581 19.8931 -10.3606 -3.7234 -7.1250 0.0000 -0.0000 -5.0571 19.0008 3.1473 -0.0000 0.0000 0.0000 92.4998 -3.1202 -1.0637 -9.6734 16.2271 -1.3823 0.0000 0.0000 11.8485 -19.9751 -58.5878 17.2342 7.1250 -0.0000 -0.0000 93.1706 -78.9258 -81.9618
-1.0744 17.9662 20.9200 178.0360 -3.2171 -153.8200 0.0000 0.0000 0.0000 -21.9069 -14.5990 -20.9021 0.1177 2.2117 6.0912 0.0289 -4.9509 -4.3672 3.2736 -11.1252 -32.7034 0.0000 0.0000 0.0000 18.5009 11.6130 -21.0880 -0.0788 -1.8103 4.9817 -0.8186 5.1880 -16.1368 -0.7403 5.4966 -15.3307 -7.6524 -0.9235 -27.4007 -0.3317 0.7966 -0.4532 4.0730 -0.3268 13.9811 -1.0378 -1.5520 -2.7310 2.3138 -5.3215 26.2872 0.3851 -3.3163 8.7166 -0.0000 -0.0000 0.0000 -86.2841 -1.3966 25.5504 9.3324 -15.6886 -1.2885 -0.0000 -0.0000 5.9928 20.1075 -10.4524 -3.7998 -7.1250 0.0000 -0.0000 -4.9066 18.8879 3.0653 -0.0000 -0.0000 0.0000 92.4308 -3.0894 -1.3108 -9.6040 16.1178 -1.3630 0.0000 0.0000 11.8073 -17.5938 -58.3281 15.1028 7.1250 -0.0000 -0.0000 90.4073 -78.1932 -78.3506
-1.0728 17.9674 20.9239 178.0540 -3.2852 -153.9190 0.0000 0.0000 0.0000 -21.8791 -14.5205 -20.8256 0.1175 2.2099 6.0861 0.0241 -5.0302 -4.2726 3.2192 -11.0418 -32.4208 0.0000 0.0000 0.0000 18.5372 11.7262 -20.8394 -0.0740 -1.7555 4.8303 -0.8138 4.9684 -16.0967 -0.7543 5.5471 -15.4758 -7.6771 -1.0071 -27.2030 -0.2829 0.6848 -0.4085 4.1004 -0.3749 13.9521 -0.9820 -1.6568 -2.8546 2.2204 -5.5234 26.5620 0.3182 -3.4260 8.8361 0.0000 -0.0000 0.0000 -86.3547 -1.5269 25.2704 9.2837 -15.6115 -1.2754 -0.0000 -0.0000 6.3588 20.6606 -10.6760 -3.9960 -7.1250 0.0000 -0.0000 -4.5197 18.6086 2.8500 0.0000 -0.0000 0.0000 92.3386 -2.9514 -3.0336 -9.3636 15.7380 -1.2970 0.0000 0.0000 12.5594 -14.8523 -55.2220 12.2881 7.1250 -0.0000 -0.0000 75.2770 -77.2877 -62.3426
-1.0755 17.9673 20.9283 178.1270 -3.3763 -153.9230 0.0000 0.0000 0.0000 -21.7686 -14.5837 -20.8677 0.1202 2.2349 6.1553 0.0240 -5.0318 -4.2716 3.1525 -10.9379 -32.0709 0.0000 0.0000 0.0000 18.6074 11.8518 -20.7973 -0.0738 -1.7528 4.8230 -0.8170 4.8083 -16.1372 -0.7452 5.5141 -15.3808 -7.5795 -1.0722 -27.1259 -0.2365 0.5636 -0.3833 4.0545 -0.4224 13.9617 -0.8614 -1.6672 -2.9607 2.1581 -5.6456 26.9702 0.2539 -3.4983 8.9975 -0.0000 -0.0000 0.0000 -86.3536 -1.5526 25.2932 9.2965 -15.6317 -1.2788 -0.0000 -0.0000 6.6394 21.4368 -10.8395 -4.2230 -7.1250 0.0000 -0.0000 -3.9759 18.3720 2.5262 -0.0000 -0.0000 0.0000 92.3290 -3.1357 -1.8633 -9.5612 16.0503 -1.3511 0.0000 0.0000 12.1594 -16.1751 -56.9431 13.6638 7.1250 -0.0000 -0.0000 83.2989 -77.8487 -70.8028
